<svg xmlns="http://www.w3.org/2000/svg" width="256" height="256" viewBox="0 0 256 256"><rect x="9" y="9" width="238" height="238" rx="68" fill="#35442d"/><path d="M72 116Q38 38 69 42Q93 39 109 95M145 94Q164 34 188 47Q209 62 181 121" fill="#9fb964"/><path d="M61 143Q49 95 91 85Q122 66 150 84Q194 87 195 133Q204 192 167 208Q127 226 88 210Q54 199 61 143" fill="#d5ef9b"/><ellipse cx="98" cy="140" rx="7" ry="10" fill="#35442d"/><ellipse cx="160" cy="140" rx="7" ry="10" fill="#35442d"/><path d="M117 163Q128 176 140 163" stroke="#35442d" stroke-width="6" stroke-linecap="round" fill="none"/><ellipse cx="80" cy="161" rx="13" ry="6" fill="#e8b391"/><ellipse cx="177" cy="161" rx="13" ry="6" fill="#e8b391"/></svg>
